<svg width="267" height="37" viewBox="0 0 267 37" fill="none" xmlns="http://www.w3.org/2000/svg">
<path d="M0.0262784 36V1.09091H13.799C16.4467 1.09091 18.7024 1.59659 20.5661 2.60795C22.4297 3.60795 23.8501 5 24.8274 6.78409C25.8161 8.55682 26.3104 10.6023 26.3104 12.9205C26.3104 15.2386 25.8104 17.2841 24.8104 19.0568C23.8104 20.8295 22.3615 22.2102 20.4638 23.1989C18.5774 24.1875 16.2933 24.6818 13.6115 24.6818H4.8331V18.767H12.4183C13.8388 18.767 15.0092 18.5227 15.9297 18.0341C16.8615 17.5341 17.5547 16.8466 18.0092 15.9716C18.4751 15.0852 18.7081 14.0682 18.7081 12.9205C18.7081 11.7614 18.4751 10.75 18.0092 9.88636C17.5547 9.01136 16.8615 8.33523 15.9297 7.85795C14.9979 7.36932 13.8161 7.125 12.3842 7.125H7.40696V36H0.0262784ZM31.1044 36V1.09091H44.8771C47.5135 1.09091 49.7635 1.5625 51.6271 2.50568C53.5021 3.4375 54.9283 4.76136 55.9055 6.47727C56.8942 8.18182 57.3885 10.1875 57.3885 12.4943C57.3885 14.8125 56.8885 16.8068 55.8885 18.4773C54.8885 20.1364 53.4396 21.4091 51.5419 22.2955C49.6555 23.1818 47.3714 23.625 44.6896 23.625H35.468V17.6932H43.4964C44.9055 17.6932 46.076 17.5 47.0078 17.1136C47.9396 16.7273 48.6328 16.1477 49.0874 15.375C49.5533 14.6023 49.7862 13.642 49.7862 12.4943C49.7862 11.3352 49.5533 10.358 49.0874 9.5625C48.6328 8.76704 47.9339 8.16477 46.9908 7.75568C46.0589 7.33523 44.8828 7.125 43.4624 7.125H38.4851V36H31.1044ZM49.9567 20.1136L58.6328 36H50.4851L41.9964 20.1136H49.9567ZM85.7521 12.375C85.5135 11.5455 85.1783 10.8125 84.7465 10.1761C84.3146 9.52841 83.7862 8.98295 83.1612 8.53977C82.5476 8.08523 81.843 7.73864 81.0476 7.5C80.2635 7.26136 79.3942 7.14205 78.4396 7.14205C76.6555 7.14205 75.0874 7.58523 73.7351 8.47159C72.3942 9.35795 71.3487 10.6477 70.5987 12.3409C69.8487 14.0227 69.4737 16.0795 69.4737 18.5114C69.4737 20.9432 69.843 23.0114 70.5817 24.7159C71.3203 26.4205 72.3658 27.7216 73.718 28.6193C75.0703 29.5057 76.6669 29.9489 78.5078 29.9489C80.1783 29.9489 81.6044 29.6534 82.7862 29.0625C83.9794 28.4602 84.8885 27.6136 85.5135 26.5227C86.1499 25.4318 86.468 24.142 86.468 22.6534L87.968 22.875H78.968V17.3182H93.576V21.7159C93.576 24.7841 92.9283 27.4205 91.6328 29.625C90.3374 31.8182 88.5533 33.5114 86.2805 34.7045C84.0078 35.8864 81.4055 36.4773 78.4737 36.4773C75.201 36.4773 72.326 35.7557 69.8487 34.3125C67.3714 32.858 65.4396 30.7955 64.0533 28.125C62.6783 25.4432 61.9908 22.2614 61.9908 18.5795C61.9908 15.75 62.3999 13.2273 63.218 11.0114C64.0476 8.78409 65.2067 6.89773 66.6953 5.35227C68.1839 3.80682 69.9169 2.63068 71.8942 1.82386C73.8714 1.01704 76.0135 0.613635 78.3203 0.613635C80.2976 0.613635 82.1385 0.903408 83.843 1.48295C85.5476 2.05114 87.0589 2.85795 88.3771 3.90341C89.7067 4.94886 90.7919 6.19318 91.6328 7.63636C92.4737 9.06818 93.0135 10.6477 93.2521 12.375H85.7521ZM122.268 12.375C122.029 11.5455 121.694 10.8125 121.262 10.1761C120.83 9.52841 120.302 8.98295 119.677 8.53977C119.063 8.08523 118.359 7.73864 117.563 7.5C116.779 7.26136 115.91 7.14205 114.955 7.14205C113.171 7.14205 111.603 7.58523 110.251 8.47159C108.91 9.35795 107.864 10.6477 107.114 12.3409C106.364 14.0227 105.989 16.0795 105.989 18.5114C105.989 20.9432 106.359 23.0114 107.097 24.7159C107.836 26.4205 108.881 27.7216 110.234 28.6193C111.586 29.5057 113.183 29.9489 115.023 29.9489C116.694 29.9489 118.12 29.6534 119.302 29.0625C120.495 28.4602 121.404 27.6136 122.029 26.5227C122.665 25.4318 122.984 24.142 122.984 22.6534L124.484 22.875H115.484V17.3182H130.092V21.7159C130.092 24.7841 129.444 27.4205 128.148 29.625C126.853 31.8182 125.069 33.5114 122.796 34.7045C120.523 35.8864 117.921 36.4773 114.989 36.4773C111.717 36.4773 108.842 35.7557 106.364 34.3125C103.887 32.858 101.955 30.7955 100.569 28.125C99.1939 25.4432 98.5064 22.2614 98.5064 18.5795C98.5064 15.75 98.9155 13.2273 99.7337 11.0114C100.563 8.78409 101.722 6.89773 103.211 5.35227C104.7 3.80682 106.433 2.63068 108.41 1.82386C110.387 1.01704 112.529 0.613635 114.836 0.613635C116.813 0.613635 118.654 0.903408 120.359 1.48295C122.063 2.05114 123.575 2.85795 124.893 3.90341C126.222 4.94886 127.308 6.19318 128.148 7.63636C128.989 9.06818 129.529 10.6477 129.768 12.375H122.268ZM146.54 36V30.6818L158.967 19.1761C160.023 18.1534 160.91 17.233 161.626 16.4148C162.353 15.5966 162.904 14.7955 163.279 14.0114C163.654 13.2159 163.842 12.358 163.842 11.4375C163.842 10.4148 163.609 9.53409 163.143 8.79545C162.677 8.04545 162.04 7.47159 161.234 7.07386C160.427 6.66477 159.512 6.46023 158.489 6.46023C157.421 6.46023 156.489 6.67614 155.694 7.10795C154.898 7.53977 154.285 8.15909 153.853 8.96591C153.421 9.77273 153.205 10.733 153.205 11.8466H146.2C146.2 9.5625 146.717 7.57955 147.751 5.89773C148.785 4.21591 150.234 2.91477 152.097 1.99432C153.961 1.07386 156.109 0.613635 158.54 0.613635C161.04 0.613635 163.217 1.05682 165.069 1.94318C166.933 2.81818 168.381 4.03409 169.415 5.59091C170.45 7.14773 170.967 8.93182 170.967 10.9432C170.967 12.2614 170.705 13.5625 170.183 14.8466C169.671 16.1307 168.756 17.5568 167.438 19.125C166.12 20.6818 164.262 22.5511 161.864 24.733L156.768 29.7273V29.9659H171.427V36H146.54ZM190.462 36.767C187.531 36.7557 185.008 36.0341 182.894 34.6023C180.792 33.1705 179.173 31.0966 178.036 28.3807C176.911 25.6648 176.354 22.3977 176.366 18.5795C176.366 14.7727 176.928 11.5284 178.053 8.84659C179.19 6.16477 180.809 4.125 182.911 2.72727C185.025 1.31818 187.542 0.613635 190.462 0.613635C193.383 0.613635 195.894 1.31818 197.996 2.72727C200.11 4.13636 201.735 6.18182 202.871 8.86364C204.008 11.5341 204.57 14.7727 204.559 18.5795C204.559 22.4091 203.991 25.6818 202.854 28.3977C201.729 31.1136 200.116 33.1875 198.013 34.6193C195.911 36.0511 193.394 36.767 190.462 36.767ZM190.462 30.6477C192.462 30.6477 194.059 29.642 195.252 27.6307C196.445 25.6193 197.036 22.6023 197.025 18.5795C197.025 15.9318 196.752 13.7273 196.207 11.9659C195.673 10.2045 194.911 8.88068 193.923 7.99432C192.945 7.10795 191.792 6.66477 190.462 6.66477C188.474 6.66477 186.883 7.65909 185.69 9.64773C184.496 11.6364 183.894 14.6136 183.883 18.5795C183.883 21.2614 184.15 23.5 184.684 25.2955C185.229 27.0795 185.996 28.4205 186.985 29.3182C187.974 30.2045 189.133 30.6477 190.462 30.6477ZM209.822 36V30.6818L222.248 19.1761C223.305 18.1534 224.191 17.233 224.907 16.4148C225.634 15.5966 226.185 14.7955 226.56 14.0114C226.935 13.2159 227.123 12.358 227.123 11.4375C227.123 10.4148 226.89 9.53409 226.424 8.79545C225.958 8.04545 225.322 7.47159 224.515 7.07386C223.708 6.66477 222.793 6.46023 221.771 6.46023C220.702 6.46023 219.771 6.67614 218.975 7.10795C218.18 7.53977 217.566 8.15909 217.134 8.96591C216.702 9.77273 216.487 10.733 216.487 11.8466H209.481C209.481 9.5625 209.998 7.57955 211.032 5.89773C212.066 4.21591 213.515 2.91477 215.379 1.99432C217.242 1.07386 219.39 0.613635 221.822 0.613635C224.322 0.613635 226.498 1.05682 228.35 1.94318C230.214 2.81818 231.663 4.03409 232.697 5.59091C233.731 7.14773 234.248 8.93182 234.248 10.9432C234.248 12.2614 233.987 13.5625 233.464 14.8466C232.952 16.1307 232.038 17.5568 230.719 19.125C229.401 20.6818 227.543 22.5511 225.146 24.733L220.049 29.7273V29.9659H234.708V36H209.822ZM238.778 29.8636V24.0511L253.352 1.09091H258.363V9.13636H255.397L246.21 23.6761V23.9489H266.92V29.8636H238.778ZM255.533 36V28.0909L255.67 25.517V1.09091H262.59V36H255.533Z" fill="#FFC800"/>
</svg>
